<svg width="95" height="23" viewBox="0 0 95 23" fill="none" xmlns="http://www.w3.org/2000/svg">
<path d="M14.0561 8.17274L11.769 8.81725C11.7152 8.46366 11.5385 8.13469 11.2363 7.83482C10.9365 7.53494 10.4799 7.38277 9.86676 7.38277C9.40576 7.38277 9.0298 7.50361 8.73887 7.7453C8.44795 7.987 8.30472 8.27344 8.30472 8.60689C8.30472 9.19769 8.68069 9.56246 9.43261 9.70344L10.9633 9.99437C12.0151 10.1868 12.8297 10.5986 13.4048 11.2274C13.98 11.8563 14.2664 12.5881 14.2664 13.4273C14.2664 14.3828 13.8837 15.2243 13.1229 15.9494C12.3598 16.6744 11.3348 17.037 10.0458 17.037C8.60684 17.037 7.49238 16.6632 6.70241 15.918C5.91244 15.1706 5.46934 14.3247 5.37311 13.3803L7.70945 12.8163C7.76316 13.3847 7.98695 13.8547 8.37858 14.2262C8.77021 14.5977 9.33638 14.7812 10.0794 14.7812C10.5739 14.7812 10.9656 14.6715 11.2565 14.45C11.5474 14.2307 11.6906 13.942 11.6906 13.5884C11.6906 13.2975 11.5832 13.0535 11.3684 12.8544C11.1535 12.6552 10.8537 12.5187 10.4665 12.4426L8.90447 12.1517C7.93771 11.9682 7.17683 11.5765 6.62408 10.9746C6.07132 10.3726 5.79383 9.6475 5.79383 8.79934C5.79383 7.74754 6.19665 6.8703 7.00228 6.17208C7.80791 5.47386 8.7702 5.12476 9.8869 5.12476C10.5627 5.12476 11.167 5.21875 11.6996 5.40673C12.2322 5.59471 12.6529 5.84535 12.964 6.15641C13.275 6.46748 13.519 6.78973 13.698 7.12318C13.8703 7.45886 13.9912 7.80797 14.0561 8.17274Z" fill="#2794E3"/>
<path d="M23.3522 16.7931L22.5309 14.4724H18.1156L17.2943 16.7931H14.6201L18.9213 5.36871H21.8708L26.125 16.7931H23.3522ZM20.3557 8.20634L18.9548 12.154H21.7253L20.3557 8.20634Z" fill="#2794E3"/>
<path d="M33.0199 16.7931L30.9744 12.5389H30.0726V16.7931H27.5259V5.36871H32.0531C33.1586 5.36871 34.0538 5.70663 34.7363 6.38471C35.4189 7.06055 35.759 7.91541 35.759 8.94707C35.759 9.72138 35.5598 10.3883 35.1637 10.9522C34.7654 11.5162 34.2126 11.9212 33.5032 12.1696L35.8239 16.7931H33.0199ZM30.0703 10.348H31.5697C32.0844 10.348 32.4828 10.2227 32.7625 9.96978C33.0422 9.7169 33.181 9.38122 33.181 8.96274C33.181 8.53307 33.0422 8.19515 32.7625 7.94674C32.4828 7.70058 32.0867 7.57525 31.5697 7.57525H30.0703V10.348Z" fill="#2794E3"/>
<path d="M50.5827 16.7931H48.0852V9.22009L45.1044 16.7931H43.0411L40.0602 9.31632V16.7931H37.6433V5.36871H40.9621L44.1041 13.0871L47.0849 5.36871H50.5805V16.7931H50.5827Z" fill="#2794E3"/>
<path d="M60.3152 16.7931H53.0645V5.36871H60.2995V7.76996H55.6112V9.94517H59.8654V12.1853H55.6112V14.3762H60.3152V16.7931Z" fill="#2794E3"/>
<path d="M66.5812 16.7931H62.4568V5.36871H66.5969C68.3268 5.36871 69.7143 5.88343 70.7616 6.91509C71.8089 7.94675 72.3326 9.3387 72.3326 11.0887C72.3326 12.8387 71.8089 14.2285 70.7616 15.2534C69.7165 16.2806 68.3223 16.7931 66.5812 16.7931ZM65.0035 14.3941H66.485C67.4204 14.3941 68.1858 14.1143 68.7811 13.5571C69.3763 12.9976 69.6762 12.1763 69.6762 11.091C69.6762 9.9944 69.3786 9.16863 68.7811 8.60916C68.1858 8.04969 67.4204 7.77219 66.485 7.77219H65.0035V14.3941Z" fill="#2794E3"/>
<path d="M76.7322 16.7931H74.1542V5.36871H76.7322V16.7931Z" fill="#2794E3"/>
<path d="M86.8519 16.7931L86.0306 14.4724H81.6153L80.794 16.7931H78.1197L82.4209 5.36871H85.3704L89.6246 16.7931H86.8519ZM83.8554 8.20634L82.4545 12.154H85.225L83.8554 8.20634Z" fill="#2794E3"/>
<path d="M95 22.1661H0V0H95V22.1661ZM2.68545 19.4807H92.3146V2.68545H2.68545V19.4807Z" fill="#2794E3"/>
</svg>
