<svg width="14" height="14" viewBox="0 0 14 14" fill="none" xmlns="http://www.w3.org/2000/svg">
<path fill-rule="evenodd" clip-rule="evenodd" d="M13.4 6.9911C13.4 7.42392 13.3559 7.85614 13.2694 8.27745C13.185 8.68876 13.06 9.09256 12.8962 9.47858C12.7363 9.85777 12.5378 10.2232 12.3059 10.5639C12.0775 10.9026 11.8143 11.2202 11.5252 11.5098C11.2355 11.7982 10.9168 12.0606 10.5783 12.29C10.2364 12.5203 9.8705 12.7184 9.49109 12.8792C9.10452 13.0421 8.69978 13.1669 8.28883 13.2511C7.86696 13.3379 7.43316 13.3822 6.99972 13.3822C6.56595 13.3822 6.13218 13.3379 5.71091 13.2511C5.29933 13.1669 4.89462 13.0421 4.50835 12.8792C4.12896 12.7184 3.76267 12.5203 3.42079 12.29C3.08234 12.0606 2.76357 11.7982 2.47449 11.5098C2.18511 11.2202 1.92196 10.9026 1.6932 10.5639C1.46256 10.2232 1.26379 9.85774 1.10317 9.47858C0.939387 9.09256 0.814086 8.68874 0.729391 8.27745C0.643769 7.85614 0.600006 7.42392 0.600006 6.9911C0.600006 6.55796 0.643744 6.12481 0.729416 5.70443C0.814111 5.29312 0.939412 4.88869 1.10319 4.5033C1.26381 4.12384 1.46259 3.75811 1.69322 3.41731C1.92198 3.07842 2.18514 2.76134 2.47452 2.47143C2.7636 2.18307 3.08236 1.92127 3.42081 1.69222C3.7627 1.46096 4.12898 1.26282 4.50837 1.10178C4.89465 0.938541 5.29933 0.813421 5.71093 0.729799C6.1322 0.643675 6.56597 0.599976 6.99974 0.599976C7.43319 0.599976 7.86696 0.643675 8.28885 0.729799C8.6998 0.813446 9.10452 0.938566 9.49112 1.10178C9.8705 1.2628 10.2365 1.46096 10.5783 1.69222C10.9168 1.92127 11.2356 2.18307 11.5253 2.47143C11.8144 2.76134 12.0775 3.07842 12.3059 3.41731C12.5378 3.75811 12.7363 4.12386 12.8962 4.5033C13.06 4.88869 13.185 5.29312 13.2694 5.70443C13.3559 6.12481 13.4 6.55796 13.4 6.9911ZM4.6677 2.05451C3.14354 2.77322 2.00598 4.17563 1.65127 5.86578C1.79536 5.86703 4.07298 5.89575 6.69717 5.19951C5.75119 3.52121 4.74052 2.15159 4.6677 2.05451ZM7.15 6.03994C4.3358 6.88124 1.63534 6.8207 1.53847 6.81697C1.53689 6.87563 1.53408 6.93241 1.53408 6.9911C1.53408 8.39319 2.06379 9.67141 2.93447 10.6379C2.93259 10.6351 4.42831 7.98533 7.37783 7.03292C7.44907 7.00921 7.52159 6.98797 7.59346 6.96738C7.45629 6.65721 7.30656 6.34638 7.15 6.03994ZM10.6093 2.89492C9.64701 2.04764 8.38353 1.5337 6.9997 1.5337C6.55561 1.5337 6.12464 1.58738 5.71182 1.68661C5.79368 1.79647 6.82031 3.15644 7.75504 4.87028C9.81735 4.09824 10.5958 2.91488 10.6093 2.89492ZM7.96602 7.87175C7.95385 7.87577 7.94168 7.87925 7.92978 7.8836C4.70498 9.0062 3.65187 11.2685 3.64048 11.2932C4.56836 12.0138 5.73217 12.4485 6.99974 12.4485C7.75663 12.4485 8.4776 12.2946 9.13357 12.016C9.05263 11.5391 8.73512 9.86772 7.96602 7.87175ZM10.0539 11.5173C11.2812 10.6903 12.1528 9.37717 12.3959 7.85611C12.2834 7.81992 10.7543 7.33652 8.99009 7.61896C9.707 9.58624 9.99829 11.1884 10.0539 11.5173ZM8.17573 5.68353C8.30259 5.94381 8.42543 6.20871 8.53886 6.47493C8.57919 6.57043 8.61857 6.66406 8.657 6.75767C10.5346 6.52173 12.3844 6.91868 12.4635 6.93489C12.451 5.64109 11.9875 4.45367 11.2206 3.52404C11.2103 3.53868 10.3337 4.80349 8.17573 5.68353Z" fill="white"/>
</svg>
